<mxfile host="app.diagrams.net" modified="2024-06-09T13:54:43.470Z" agent="Mozilla/5.0 (Macintosh; Intel Mac OS X 10_15_7) AppleWebKit/537.36 (KHTML, like Gecko) Chrome/125.0.0.0 Safari/537.36" etag="CN8595sA_82dckoVEdnN" version="24.5.2" type="github">
  <diagram name="Page-1" id="lB4y-R3n_MX4Pxtum-g_">
    <mxGraphModel dx="1053" dy="741" grid="1" gridSize="10" guides="1" tooltips="1" connect="1" arrows="1" fold="1" page="1" pageScale="1" pageWidth="827" pageHeight="1169" math="0" shadow="0">
      <root>
        <mxCell id="0" />
        <mxCell id="1" parent="0" />
        <mxCell id="1H_OqrdYLENw18_o_36x-1" value="User Interface" style="html=1;dashed=0;whiteSpace=wrap;fillColor=#d5e8d4;gradientColor=#97d077;strokeColor=#82b366;" vertex="1" parent="1">
          <mxGeometry x="130" y="70" width="100" height="50" as="geometry" />
        </mxCell>
        <mxCell id="1H_OqrdYLENw18_o_36x-2" value="&lt;b&gt;Service User Registration&lt;/b&gt;" style="html=1;dashed=0;whiteSpace=wrap;fillColor=#ffcd28;gradientColor=#ffa500;strokeColor=#d79b00;" vertex="1" parent="1">
          <mxGeometry x="270" y="70" width="100" height="50" as="geometry" />
        </mxCell>
        <mxCell id="1H_OqrdYLENw18_o_36x-3" value="Service Communication" style="html=1;dashed=0;whiteSpace=wrap;fillColor=#f8cecc;gradientColor=#ea6b66;strokeColor=#b85450;" vertex="1" parent="1">
          <mxGeometry x="414" y="70" width="100" height="50" as="geometry" />
        </mxCell>
        <mxCell id="1H_OqrdYLENw18_o_36x-4" value="&lt;b&gt;Service FL Training and Aggregation&lt;/b&gt;" style="html=1;dashed=0;whiteSpace=wrap;fillColor=#e6d0de;gradientColor=#d5739d;strokeColor=#996185;" vertex="1" parent="1">
          <mxGeometry x="560" y="70" width="100" height="50" as="geometry" />
        </mxCell>
        <mxCell id="1H_OqrdYLENw18_o_36x-5" value="Data base" style="html=1;dashed=0;whiteSpace=wrap;fillColor=#dae8fc;gradientColor=#7ea6e0;strokeColor=#6c8ebf;" vertex="1" parent="1">
          <mxGeometry x="710" y="70" width="100" height="50" as="geometry" />
        </mxCell>
        <mxCell id="1H_OqrdYLENw18_o_36x-6" value="Actor" style="shape=umlActor;verticalLabelPosition=bottom;verticalAlign=top;html=1;outlineConnect=0;" vertex="1" parent="1">
          <mxGeometry x="40" y="65" width="30" height="60" as="geometry" />
        </mxCell>
        <mxCell id="1H_OqrdYLENw18_o_36x-8" value="" style="rounded=0;whiteSpace=wrap;html=1;" vertex="1" parent="1">
          <mxGeometry x="45" y="160" width="20" height="570" as="geometry" />
        </mxCell>
        <mxCell id="1H_OqrdYLENw18_o_36x-9" value="" style="endArrow=none;dashed=1;html=1;dashPattern=1 3;strokeWidth=2;rounded=0;entryX=0.5;entryY=1;entryDx=0;entryDy=0;" edge="1" parent="1" target="1H_OqrdYLENw18_o_36x-1">
          <mxGeometry width="50" height="50" relative="1" as="geometry">
            <mxPoint x="180" y="730" as="sourcePoint" />
            <mxPoint x="460" y="350" as="targetPoint" />
          </mxGeometry>
        </mxCell>
        <mxCell id="1H_OqrdYLENw18_o_36x-10" value="" style="endArrow=none;dashed=1;html=1;dashPattern=1 3;strokeWidth=2;rounded=0;entryX=0.5;entryY=1;entryDx=0;entryDy=0;" edge="1" parent="1">
          <mxGeometry width="50" height="50" relative="1" as="geometry">
            <mxPoint x="319.28999999999996" y="730" as="sourcePoint" />
            <mxPoint x="319.28999999999996" y="120" as="targetPoint" />
          </mxGeometry>
        </mxCell>
        <mxCell id="1H_OqrdYLENw18_o_36x-11" value="" style="endArrow=none;dashed=1;html=1;dashPattern=1 3;strokeWidth=2;rounded=0;entryX=0.5;entryY=1;entryDx=0;entryDy=0;" edge="1" parent="1">
          <mxGeometry width="50" height="50" relative="1" as="geometry">
            <mxPoint x="463.29" y="730" as="sourcePoint" />
            <mxPoint x="463.29" y="120" as="targetPoint" />
          </mxGeometry>
        </mxCell>
        <mxCell id="1H_OqrdYLENw18_o_36x-12" value="" style="endArrow=none;dashed=1;html=1;dashPattern=1 3;strokeWidth=2;rounded=0;entryX=0.5;entryY=1;entryDx=0;entryDy=0;" edge="1" parent="1">
          <mxGeometry width="50" height="50" relative="1" as="geometry">
            <mxPoint x="609.29" y="730" as="sourcePoint" />
            <mxPoint x="609.29" y="120" as="targetPoint" />
          </mxGeometry>
        </mxCell>
        <mxCell id="1H_OqrdYLENw18_o_36x-13" value="" style="endArrow=none;dashed=1;html=1;dashPattern=1 3;strokeWidth=2;rounded=0;entryX=0.5;entryY=1;entryDx=0;entryDy=0;" edge="1" parent="1">
          <mxGeometry width="50" height="50" relative="1" as="geometry">
            <mxPoint x="759.29" y="730" as="sourcePoint" />
            <mxPoint x="759.29" y="120" as="targetPoint" />
          </mxGeometry>
        </mxCell>
      </root>
    </mxGraphModel>
  </diagram>
</mxfile>
